<?xml version="1.0" encoding="UTF-8"?>
<svg width="80px" height="80px" viewBox="0 0 80 80" version="1.1" xmlns="http://www.w3.org/2000/svg" xmlns:xlink="http://www.w3.org/1999/xlink">
    <!-- Generator: Sketch 52.4 (67378) - http://www.bohemiancoding.com/sketch -->
    <title>003-BIG</title>
    <desc>Created with Sketch.</desc>
    <defs>
        <path d="M0.923992358,8.35439252 C-0.17656839,9.61271028 -0.0487179222,11.5252336 1.20885217,12.6265421 C1.76062787,13.108785 2.46866526,13.3749533 3.2021232,13.3749533 L22.6570765,13.3749533 L8.20474002,0.0336448598 L0.923992358,8.35439252 Z" id="path-1"></path>
        <linearGradient x1="42.140574%" y1="75.8433927%" x2="19.466127%" y2="27.5051457%" id="linearGradient-3">
            <stop stop-color="#FF4F12" offset="0%"></stop>
            <stop stop-color="#BA341C" offset="100%"></stop>
        </linearGradient>
    </defs>
    <g id="icons" stroke="none" stroke-width="1" fill="none" fill-rule="evenodd">
        <g id="icons_B2C_table" transform="translate(-371.000000, -806.000000)">
            <g id="003-BIG" transform="translate(371.000000, 806.000000)">
                <path d="M79.5660036,39.7830018 C79.5660036,61.754792 61.7533454,79.5660036 39.7830018,79.5660036 C17.8112116,79.5660036 0,61.754792 0,39.7830018 C0,17.8112116 17.8112116,0 39.7830018,0 C61.7533454,0 79.5660036,17.8112116 79.5660036,39.7830018" id="Fill-3" fill="#E1E8EC"></path>
                <g id="Group-25" transform="translate(25.000000, 11.000000)">
                    <g id="Group-4" transform="translate(1.610213, 43.014953)">
                        <mask id="mask-2" fill="white">
                            <use xlink:href="#path-1"></use>
                        </mask>
                        <g id="Clip-3"></g>
                        <path d="M0.923992358,8.35439252 C-0.17656839,9.61271028 -0.0487179222,11.5252336 1.20885217,12.6265421 C1.76062787,13.108785 2.46866526,13.3749533 3.2021232,13.3749533 L22.6570765,13.3749533 L8.20474002,0.0336448598 L0.923992358,8.35439252 Z" id="Fill-2" fill="url(#linearGradient-3)" mask="url(#mask-2)"></path>
                    </g>
                    <path d="M33.7176822,20.2580187 L13.7064673,0.803065421 L1.44927103,13.5701682 C0.753943925,14.2946542 0.635359116,15.1885104 0.635359116,16.1933702 L0.635359116,51.9944751 C0.635359116,54.4512976 2.35618692,56.3896075 4.81226168,56.3896075 C3.26908411,56.3896075 2.01749533,55.1387664 2.01749533,53.5948411 C2.01749533,52.8613832 2.30609346,52.1578318 2.82048598,51.635215 L33.7176822,20.2580187 Z" id="Fill-5" fill="#7700FF"></path>
                </g>
            </g>
        </g>
    </g>
</svg>